# xmcd
#
# Track frame offsets: 
#        150
#        20353
#        35042
#        57356
#        71008
#        86149
#        96241
#        105640
#        120303
#
# Disc length: 2013 seconds
#
# Revision: 0
# Processed by: cddbd v1.5.2PL0 Copyright (c) Steve Scherf et al.
# Submitted via: ExactAudioCopy v0.95b3
#
DISCID=7507db09
DTITLE=Pippo Antonini and The Blues Train - ...Callin' San Francisco
DYEAR=2002
DGENRE=Blues
TTITLE0=Pride And Joy
TTITLE1=Give Me Back My Wig
TTITLE2=The Sky Is Crying
TTITLE3=Callin' San Francisco
TTITLE4=If You Love Me (Like You Say)
TTITLE5=Jaunty Rock
TTITLE6=The City
TTITLE7=Boom Boom
TTITLE8=Angel Upon A Cloud
EXTD=
EXTT0=
EXTT1=
EXTT2=
EXTT3=
EXTT4=
EXTT5=
EXTT6=
EXTT7=
EXTT8=
PLAYORDER=
